<?xml version="1.0" encoding="UTF-8" standalone="no"?>
<svg
   xmlns:dc="http://purl.org/dc/elements/1.1/"
   xmlns:cc="http://creativecommons.org/ns#"
   xmlns:rdf="http://www.w3.org/1999/02/22-rdf-syntax-ns#"
   xmlns:svg="http://www.w3.org/2000/svg"
   xmlns="http://www.w3.org/2000/svg"
   xmlns:sodipodi="http://sodipodi.sourceforge.net/DTD/sodipodi-0.dtd"
   xmlns:inkscape="http://www.inkscape.org/namespaces/inkscape"
   id="svg3025"
   version="1.1"
   inkscape:version="0.91 r13725"
   width="39.999992"
   height="31.5695"
   sodipodi:docname="edit.svg">
  <defs
     id="defs3033" />
  <sodipodi:namedview
     pagecolor="#ffffff"
     bordercolor="#666666"
     borderopacity="1"
     objecttolerance="10"
     gridtolerance="10"
     guidetolerance="10"
     inkscape:pageopacity="0"
     inkscape:pageshadow="2"
     inkscape:window-width="2495"
     inkscape:window-height="1416"
     id="namedview3031"
     showgrid="false"
     inkscape:zoom="5.9599001"
     inkscape:cx="69.5154"
     inkscape:cy="20.234005"
     inkscape:window-x="65"
     inkscape:window-y="24"
     inkscape:window-maximized="1"
     inkscape:current-layer="svg3025"
     fit-margin-top="0"
     fit-margin-left="0"
     fit-margin-right="0"
     fit-margin-bottom="0" />
  <g
     transform="matrix(0.02242152,0,0,-0.02242152,0,31.5695)"
     id="g3027"
     style="opacity:0.67600002;fill:#6d96c6;fill-opacity:1">
    <path
       d="m 888,352 116,116 -152,152 -116,-116 0,-56 96,0 0,-96 56,0 z m 440,720 q -16,16 -33,-1 L 945,721 q -17,-17 -1,-33 16,-16 33,1 l 350,350 q 17,17 1,33 z m 80,-594 0,-190 Q 1408,169 1323.5,84.5 1239,0 1120,0 L 288,0 Q 169,0 84.5,84.5 0,169 0,288 l 0,832 Q 0,1239 84.5,1323.5 169,1408 288,1408 l 832,0 q 63,0 117,-25 15,-7 18,-23 3,-17 -9,-29 l -49,-49 q -14,-14 -32,-8 -23,6 -45,6 l -832,0 q -66,0 -113,-47 -47,-47 -47,-113 l 0,-832 q 0,-66 47,-113 47,-47 113,-47 l 832,0 q 66,0 113,47 47,47 47,113 l 0,126 q 0,13 9,22 l 64,64 q 15,15 35,7 20,-8 20,-29 z m -96,738 288,-288 -672,-672 -288,0 0,288 z m 444,-132 -92,-92 -288,288 92,92 q 28,28 68,28 40,0 68,-28 l 152,-152 q 28,-28 28,-68 0,-40 -28,-68 z"
       id="path3029"
       inkscape:connector-curvature="0"
       style="fill:#6d96c6;fill-opacity:1" />
  </g>
</svg>
