<?xml version="1.0" encoding="UTF-8" standalone="no"?>
<!-- Created with Inkscape (http://www.inkscape.org/) -->

<svg
   xmlns:dc="http://purl.org/dc/elements/1.1/"
   xmlns:cc="http://creativecommons.org/ns#"
   xmlns:rdf="http://www.w3.org/1999/02/22-rdf-syntax-ns#"
   xmlns:svg="http://www.w3.org/2000/svg"
   xmlns="http://www.w3.org/2000/svg"
   xmlns:sodipodi="http://sodipodi.sourceforge.net/DTD/sodipodi-0.dtd"
   xmlns:inkscape="http://www.inkscape.org/namespaces/inkscape"
   width="48"
   height="48"
   viewBox="0 0 48 48"
   id="svg2"
   version="1.1"
   inkscape:version="0.91 r13725"
   sodipodi:docname="logo.svg">
  <defs
     id="defs4" />
  <sodipodi:namedview
     id="base"
     pagecolor="#ffffff"
     bordercolor="#666666"
     borderopacity="1.0"
     inkscape:pageopacity="0.0"
     inkscape:pageshadow="2"
     inkscape:zoom="0.98994949"
     inkscape:cx="-82.182396"
     inkscape:cy="21.157082"
     inkscape:document-units="px"
     inkscape:current-layer="layer1"
     showgrid="false"
     units="px"
     inkscape:window-width="2495"
     inkscape:window-height="1416"
     inkscape:window-x="65"
     inkscape:window-y="24"
     inkscape:window-maximized="1" />
  <metadata
     id="metadata7">
    <rdf:RDF>
      <cc:Work
         rdf:about="">
        <dc:format>image/svg+xml</dc:format>
        <dc:type
           rdf:resource="http://purl.org/dc/dcmitype/StillImage" />
        <dc:title />
      </cc:Work>
    </rdf:RDF>
  </metadata>
  <g
     inkscape:label="Layer 1"
     inkscape:groupmode="layer"
     id="layer1"
     transform="translate(0,-1004.3622)">
    <g
       id="g4150"
       transform="matrix(0.71363201,0,0,0.71363201,-0.92400722,293.12926)"
       style="fill:#ffffff;fill-opacity:1">
      <path
         d="m 10.102136,1032.669 q 0,1.08 -0.96,1.96 -0.92,0.84 -0.92,1.16 0,0.24 0.12,0.6 0.12,0.4 0.2,0.56 0.08,0.16 0.52,0.28 0.44,0.08 1,0.12 0.6,0 2,0 2.16,0 3.24,-0.2 1.12,-0.24 2.24,-0.88 1.76,-1.04 2.24,-1.6 0.48,-0.56 0.8,-2.04 0.12,-0.48 0.12,-0.8 0,-0.48 -0.44,-0.8 -0.4,-0.32 -1.84,-1 -2.32,-1.12 -3.36,-1.24 -2,0 -5.12,-2.92 -3.08,-2.92 -3.08,-4.8 0,-1.8 3,-4.96 3.04,-3.2 6.68,-4.68 1.76,-0.72 6.04,-0.72 1.88,0 2.76,0.28 0.88,0.28 1.76,1.12 1.32,1.28 1.32,2.6 0,0.24 -0.08,0.6 -0.08,0.32 -0.36,0.72 -0.28,0.4 -0.72,0.4 -0.44,0 -0.92,-0.4 -0.48,-0.4 -0.92,-0.84 -0.44,-0.48 -1.4,-0.88 -0.96,-0.4 -2.24,-0.4 -3.88,0 -7.28,2.68 -3.4,2.68 -3.4,4.64 0,0.88 2.08,2.08 2.12,1.2 5.56,2.28 5.8,1.84 5.8,5.6 0,1.64 -0.96,3.44 -1.72,3.32 -4.4,4.6 -2.68,1.24 -8.88,1.64 l -4.36,0.28 -0.68,-2.56 q -0.32,-1.16 -0.32,-2.12 0,-2.08 1.08,-3.52 1.12,-1.44 2.84,-1.44 1.24,0 1.24,1.16 z"
         style="font-style:oblique;font-variant:normal;font-weight:bold;font-stretch:normal;font-size:medium;line-height:125%;font-family:Purisa;-inkscape-font-specification:'Purisa, Bold Oblique';text-align:start;letter-spacing:0px;word-spacing:0px;writing-mode:lr-tb;text-anchor:start;fill:#ffffff;fill-opacity:1;stroke:none;stroke-width:1px;stroke-linecap:butt;stroke-linejoin:miter;stroke-opacity:1"
         id="path4141"
         inkscape:connector-curvature="0" />
      <path
         d="m 44.336511,1038.509 q 0,0.44 -0.44,1 -0.4,0.52 -1.2,0.52 -1,-0.08 -2.16,-0.96 -1.12,-0.92 -1.36,-0.92 -0.44,0 -0.68,-0.16 -0.24,-0.16 -0.24,-0.32 l -0.04,-0.16 q -0.52,-0.44 -4.8,-1.84 l -1.4,-0.48 -0.28,2.4 q 0,0.08 -0.08,0.6 -0.04,0.48 -0.08,0.68 0,0.2 -0.08,0.68 -0.08,0.44 -0.2,0.68 -0.08,0.2 -0.24,0.56 -0.16,0.32 -0.36,0.48 -0.2,0.2 -0.52,0.32 -0.32,0.12 -0.68,0.12 -0.92,0 -1.32,-0.52 -0.36,-0.48 -0.36,-1.72 0,-1.56 1.16,-8.28 1.16,-6.72 1.2,-8.48 0.08,-4.28 1.56,-11.2 0.4,-2.08 1.88,-2.08 1.36,0 1.36,1.76 0,1.28 -0.72,7.16 -0.68,5.84 -0.72,7.48 l -0.04,1.28 5.12,-3.8 q 0.44,-0.32 1.28,-0.96 0.88,-0.64 1.28,-0.92 0.4,-0.32 1.08,-0.8 0.68,-0.48 1,-0.68 0.36,-0.24 0.8,-0.48 0.44,-0.28 0.72,-0.36 0.32,-0.12 0.52,-0.12 0.52,0.08 0.84,0.48 0.32,0.4 0.32,0.88 0,0.56 -0.28,0.88 -0.28,0.28 -1.12,0.88 -0.8,0.6 -1.56,1.4 -2.12,2.32 -8.48,6.08 -1.72,1 -1.92,1.56 0,0.28 0.4,0.48 l 4.4,1.92 q 6.44,3.2 6.44,4.96 z"
         style="font-style:oblique;font-variant:normal;font-weight:bold;font-stretch:normal;font-size:medium;line-height:125%;font-family:Purisa;-inkscape-font-specification:'Purisa, Bold Oblique';text-align:start;letter-spacing:0px;word-spacing:0px;writing-mode:lr-tb;text-anchor:start;fill:#ffffff;fill-opacity:1;stroke:none;stroke-width:1px;stroke-linecap:butt;stroke-linejoin:miter;stroke-opacity:1"
         id="path4143"
         inkscape:connector-curvature="0" />
      <path
         d="m 49.669011,1039.189 q -1.64,0 -2.36,-1.2 -0.72,-1.24 -0.72,-2.56 0,-1.32 0.84,-5.12 1.36,-6.36 2.2,-7.92 0.76,-1.4 1.76,-1.4 1.08,0 1.08,1.2 0,0.76 -1.16,5.76 -1.16,5 -1.16,6.68 0,1.12 0.4,1.12 0.56,0 2.72,-1.72 2.16,-1.72 3.32,-3.36 1.44,-2.04 2.72,-5 1.28,-2.96 2.12,-4.44 0.88,-1.48 2.12,-1.48 0.56,0 0.96,0.36 0.4,0.36 0.4,0.96 0,0.72 -0.96,2.56 -0.92,1.8 -2.08,4.84 -1.16,3 -1.56,6.44 l 0.04,0.44 0.8,-0.32 q 0.96,-0.48 1.84,-0.48 1.36,0 1.36,0.96 0,1.32 -2.48,2.48 l -1.52,0.64 -0.64,4 q -1.52,6.12 -2.04,7.28 -0.48,1.2 -1.84,1.2 -1,0 -2.84,-0.76 -1.04,-0.48 -1.6,-1.04 -0.52,-0.56 -0.88,-1.68 -0.52,-1.68 -0.52,-2.92 0,-0.96 0.24,-1.64 0.24,-0.68 0.48,-1 0.24,-0.32 0.92,-0.96 0.68,-0.68 1.04,-1.12 0.6,-0.72 1.68,-1.2 1.08,-0.48 1.16,-0.52 0.28,-0.2 1.2,-0.68 0.12,-0.36 0.12,-1.44 0,-0.36 -0.08,-0.76 -0.16,0.12 -1.12,0.92 -0.96,0.76 -1.76,1.32 -0.76,0.52 -1.96,1.04 -1.2,0.52 -2.24,0.52 z m 5.64,8.32 q 0.8,-1.24 0.8,-5.12 l 0,-0.36 q 0,-0.32 0.12,-1.08 l -0.44,0.48 q -1.04,1.12 -1.68,2.2 -0.64,1.08 -0.64,1.48 0,0.52 0.72,1.36 0.72,0.84 1.12,1.04 z"
         style="font-style:oblique;font-variant:normal;font-weight:bold;font-stretch:normal;font-size:medium;line-height:125%;font-family:Purisa;-inkscape-font-specification:'Purisa, Bold Oblique';text-align:start;letter-spacing:0px;word-spacing:0px;writing-mode:lr-tb;text-anchor:start;fill:#ffffff;fill-opacity:1;stroke:none;stroke-width:1px;stroke-linecap:butt;stroke-linejoin:miter;stroke-opacity:1"
         id="path4145"
         inkscape:connector-curvature="0" />
    </g>
  </g>
</svg>
