<?xml version="1.0" encoding="UTF-8" standalone="no"?>
<!-- Created with Inkscape (http://www.inkscape.org/) -->

<svg
   xmlns:dc="http://purl.org/dc/elements/1.1/"
   xmlns:cc="http://creativecommons.org/ns#"
   xmlns:rdf="http://www.w3.org/1999/02/22-rdf-syntax-ns#"
   xmlns:svg="http://www.w3.org/2000/svg"
   xmlns="http://www.w3.org/2000/svg"
   xmlns:sodipodi="http://sodipodi.sourceforge.net/DTD/sodipodi-0.dtd"
   xmlns:inkscape="http://www.inkscape.org/namespaces/inkscape"
   width="48"
   height="48"
   id="svg4206"
   sodipodi:version="0.32"
   inkscape:version="0.91 r13725"
   version="1.0"
   sodipodi:docname="logs.svg"
   inkscape:output_extension="org.inkscape.output.svg.inkscape"
   inkscape:export-filename="C:\Documents and Settings\mm81002\Desktop\SVG-images\woodstack.png"
   inkscape:export-xdpi="72"
   inkscape:export-ydpi="72">
  <defs
     id="defs4208">
    <filter
       inkscape:collect="always"
       id="filter3691"
       x="-0.056238063"
       width="1.1124761"
       y="-0.11094691"
       height="1.2218938">
      <feGaussianBlur
         inkscape:collect="always"
         stdDeviation="9.6702779"
         id="feGaussianBlur3693" />
    </filter>
    <inkscape:perspective
       sodipodi:type="inkscape:persp3d"
       inkscape:vp_x="0 : 526.18109 : 1"
       inkscape:vp_y="0 : 1000 : 0"
       inkscape:vp_z="744.09448 : 526.18109 : 1"
       inkscape:persp3d-origin="372.04724 : 350.78739 : 1"
       id="perspective4214" />
  </defs>
  <sodipodi:namedview
     id="base"
     pagecolor="#ffffff"
     bordercolor="#666666"
     borderopacity="1.0"
     gridtolerance="10000"
     guidetolerance="10"
     objecttolerance="10"
     inkscape:pageopacity="0.0"
     inkscape:pageshadow="2"
     inkscape:zoom="6.2942148"
     inkscape:cx="-27.873276"
     inkscape:cy="14.670214"
     inkscape:document-units="px"
     inkscape:current-layer="layer1"
     showgrid="false"
     inkscape:window-width="2495"
     inkscape:window-height="1416"
     inkscape:window-x="65"
     inkscape:window-y="24"
     fit-margin-top="0"
     fit-margin-left="0"
     fit-margin-right="0"
     fit-margin-bottom="0"
     inkscape:window-maximized="1" />
  <metadata
     id="metadata4211">
    <rdf:RDF>
      <cc:Work
         rdf:about="">
        <dc:format>image/svg+xml</dc:format>
        <dc:type
           rdf:resource="http://purl.org/dc/dcmitype/StillImage" />
        <dc:title></dc:title>
      </cc:Work>
    </rdf:RDF>
  </metadata>
  <g
     inkscape:label="Layer 1"
     inkscape:groupmode="layer"
     id="layer1"
     transform="translate(3.8058488,-74.832825)">
    <g
       id="g3695"
       transform="matrix(0.10557204,0,0,0.11594298,-30.441963,66.276648)">
      <g
         transform="translate(335.38855,170.30092)"
         style="fill:#000000;filter:url(#filter3691)"
         id="g3634">
        <ellipse
           style="fill:#000000;fill-opacity:1;stroke:#000000;stroke-width:4;stroke-miterlimit:4;stroke-dasharray:none;stroke-opacity:1"
           id="path3543"
           transform="matrix(0.9821726,-0.09788421,-0.2082585,-0.9973957,-116.09763,981.97905)"
           cx="259.62448"
           cy="792.22565"
           rx="33.285191"
           ry="45.063026" />
        <path
           style="fill:#000000;fill-opacity:1;stroke:#000000;stroke-width:3.96364594;stroke-miterlimit:4;stroke-opacity:1"
           d="M -40.957544,122.33107 C 61.707731,115.67122 157.21936,106.81091 240.72693,94.25814 c 46.92115,8.69188 58.95609,78.14927 18.63721,89.25766 -74.94901,-11.45206 -187.541412,18.44263 -281.684481,28.07293 55.923429,-8.46539 28.9696886,-91.90326 -18.637203,-89.25766 z"
           id="path3545"
           sodipodi:nodetypes="ccccc"
           inkscape:connector-curvature="0" />
        <ellipse
           style="fill:#000000;fill-opacity:1;stroke:#000000;stroke-width:4;stroke-miterlimit:4;stroke-dasharray:none;stroke-opacity:1"
           id="path3553"
           transform="matrix(0.9821726,-0.09788421,0.2082585,0.9973957,-381.23737,-596.82903)"
           cx="259.62448"
           cy="792.22565"
           rx="33.285191"
           ry="45.063026" />
        <path
           style="fill:#000000;fill-opacity:1;stroke:#000000;stroke-width:3.96364594;stroke-miterlimit:4;stroke-opacity:1"
           d="M 23.878166,123.8479 C 126.54343,117.18805 222.05507,108.32773 305.56265,95.774968 c 46.92114,8.691882 58.95608,78.149272 18.6372,89.257662 -74.94901,-11.45206 -187.54142,18.44263 -281.684481,28.07293 55.92342,-8.46539 28.969679,-91.90326 -18.637203,-89.25766 z"
           id="path3555"
           sodipodi:nodetypes="ccccc"
           inkscape:connector-curvature="0" />
        <ellipse
           style="fill:#000000;fill-opacity:1;stroke:#000000;stroke-width:4;stroke-miterlimit:4;stroke-dasharray:none;stroke-opacity:1"
           id="path3569"
           transform="matrix(0.9821726,-0.09788421,0.2082585,0.9973957,-430.36791,-684.72194)"
           cx="259.62448"
           cy="792.22565"
           rx="33.285191"
           ry="45.063026" />
        <path
           style="fill:#000000;fill-opacity:1;stroke:#000000;stroke-width:3.96364594;stroke-miterlimit:4;stroke-opacity:1"
           d="M -25.252374,35.954991 C 77.412901,29.295143 172.92453,20.434826 256.4321,7.8820602 303.35325,16.573944 315.38819,86.031334 275.06931,97.13972 200.1203,85.687664 87.527898,115.58235 -6.6151712,125.21265 49.308258,116.74726 22.354518,33.309394 -25.252374,35.954991 Z"
           id="path3571"
           sodipodi:nodetypes="ccccc"
           inkscape:connector-curvature="0" />
        <path
           style="fill:#000000;fill-rule:evenodd;stroke:#000000;stroke-width:1px;stroke-linecap:butt;stroke-linejoin:miter;stroke-opacity:1"
           d="M 85.580735,197.43826 309.57136,169.25478"
           id="path3591"
           inkscape:connector-curvature="0" />
      </g>
      <g
         transform="matrix(0.9821726,-0.09788421,0.2082585,0.9973957,-99.463709,-439.67504)"
         id="g3300">
        <ellipse
           style="fill:#ffeeaa;fill-opacity:1;stroke:#000000;stroke-width:4;stroke-miterlimit:4;stroke-dasharray:none;stroke-opacity:1"
           id="path2439"
           transform="matrix(1,0,0,-1,0,1584.4513)"
           cx="259.62448"
           cy="792.22565"
           rx="33.285191"
           ry="45.063026" />
        <path
           style="fill:#502d16;fill-opacity:1;stroke:#000000;stroke-width:3.96364594;stroke-miterlimit:4;stroke-opacity:1"
           d="m 253.97341,747.48359 c 103.78488,3.50819 200.89301,4.15491 286.79733,0 44.98879,13.12977 42.5273,82.52695 0,89.49072 -72.36883,-18.58422 -190.89384,-0.2435 -286.79733,0 57.54078,-2.84045 48.03388,-87.42919 0,-89.49072 z"
           id="rect2441"
           sodipodi:nodetypes="ccccc"
           inkscape:connector-curvature="0" />
        <ellipse
           style="fill:none;fill-opacity:1;stroke:#000000;stroke-width:4;stroke-miterlimit:4;stroke-dasharray:none;stroke-opacity:1"
           id="path2444"
           transform="matrix(1,0,0,-1,62.473739,1437.9965)"
           cx="194.07826"
           cy="643.72247"
           rx="23.043592"
           ry="32.773109" />
        <ellipse
           style="fill:none;fill-opacity:1;stroke:#000000;stroke-width:4;stroke-miterlimit:4;stroke-dasharray:none;stroke-opacity:1"
           id="path3216"
           transform="matrix(0.5668689,0,0,-0.6642047,146.53506,1226.4462)"
           cx="194.07826"
           cy="643.72247"
           rx="23.043592"
           ry="32.773109" />
        <ellipse
           style="fill:none;fill-opacity:1;stroke:#000000;stroke-width:4;stroke-miterlimit:4;stroke-dasharray:none;stroke-opacity:1"
           id="path3218"
           transform="matrix(0.4056209,0,0,-0.4414522,177.8298,1083.5675)"
           cx="194.07826"
           cy="643.72247"
           rx="23.043592"
           ry="32.773109" />
        <ellipse
           style="fill:#ffeeaa;fill-opacity:1;stroke:#000000;stroke-width:4;stroke-miterlimit:4;stroke-dasharray:none;stroke-opacity:1"
           id="path3240"
           transform="translate(64.350965,7.8361808)"
           cx="259.62448"
           cy="792.22565"
           rx="33.285191"
           ry="45.063026" />
        <path
           style="fill:#502d16;fill-opacity:1;stroke:#000000;stroke-width:3.96364594;stroke-miterlimit:4;stroke-opacity:1"
           d="m 318.32438,755.31977 c 103.78487,3.50819 200.89301,4.15491 286.79733,0 44.98879,13.12977 42.5273,82.52695 0,89.49072 -72.36884,-18.58422 -190.89385,-0.2435 -286.79733,0 57.54077,-2.84045 48.03387,-87.42919 0,-89.49072 z"
           id="path3242"
           sodipodi:nodetypes="ccccc"
           inkscape:connector-curvature="0" />
        <ellipse
           style="fill:none;fill-opacity:1;stroke:#000000;stroke-width:4;stroke-miterlimit:4;stroke-dasharray:none;stroke-opacity:1"
           id="path3244"
           transform="translate(126.8247,154.29101)"
           cx="194.07826"
           cy="643.72247"
           rx="23.043592"
           ry="32.773109" />
        <ellipse
           style="fill:none;fill-opacity:1;stroke:#000000;stroke-width:4;stroke-miterlimit:4;stroke-dasharray:none;stroke-opacity:1"
           id="path3246"
           transform="matrix(0.5668689,0,0,0.6642047,210.88602,365.84128)"
           cx="194.07826"
           cy="643.72247"
           rx="23.043592"
           ry="32.773109" />
        <ellipse
           style="fill:none;fill-opacity:1;stroke:#000000;stroke-width:4;stroke-miterlimit:4;stroke-dasharray:none;stroke-opacity:1"
           id="path3248"
           transform="matrix(0.4056209,0,0,0.4414522,242.18076,508.72)"
           cx="194.07826"
           cy="643.72247"
           rx="23.043592"
           ry="32.773109" />
        <path
           style="fill:#000000;fill-opacity:1;stroke:#000000;stroke-width:4;stroke-miterlimit:4;stroke-opacity:1"
           d="m 324.38901,802.88944 31.14632,16.45658 -3.64168,5.22529 -27.50464,-21.68187 z"
           id="path3250"
           sodipodi:nodetypes="cccc"
           inkscape:connector-curvature="0" />
        <path
           style="fill:#000000;fill-opacity:1;stroke:#000000;stroke-width:4.65024853;stroke-miterlimit:4;stroke-opacity:1"
           d="m 407.30058,820.85106 -52.62933,3.85178 0.005,-5.71886 52.62447,1.86708 z"
           id="path3252"
           sodipodi:nodetypes="cccc"
           inkscape:connector-curvature="0" />
        <g
           id="g3254"
           transform="translate(33.652822,-83.298931)">
          <ellipse
             id="path3256"
             style="opacity:1;fill:#ffeeaa;fill-opacity:1;stroke:#000000;stroke-width:4;stroke-miterlimit:4;stroke-dasharray:none;stroke-opacity:1"
             cx="259.62448"
             cy="792.22565"
             rx="33.285191"
             ry="45.063026" />
          <path
             sodipodi:nodetypes="ccccc"
             id="path3258"
             d="m 253.97341,747.48359 c 103.78488,3.50819 200.89301,4.15491 286.79733,0 44.98879,13.12977 42.5273,82.52695 0,89.49072 -72.36883,-18.58422 -190.89384,-0.2435 -286.79733,0 57.54078,-2.84045 48.03388,-87.42919 0,-89.49072 z"
             style="fill:#502d16;fill-opacity:1;stroke:#000000;stroke-width:3.96364594;stroke-miterlimit:4;stroke-opacity:1"
             inkscape:connector-curvature="0" />
          <ellipse
             transform="translate(62.473739,146.45483)"
             id="path3260"
             style="opacity:1;fill:none;fill-opacity:1;stroke:#000000;stroke-width:4;stroke-miterlimit:4;stroke-dasharray:none;stroke-opacity:1"
             cx="194.07826"
             cy="643.72247"
             rx="23.043592"
             ry="32.773109" />
          <ellipse
             transform="matrix(0.5668689,0,0,0.6642047,146.53506,358.0051)"
             id="path3262"
             style="opacity:1;fill:none;fill-opacity:1;stroke:#000000;stroke-width:4;stroke-miterlimit:4;stroke-dasharray:none;stroke-opacity:1"
             cx="194.07826"
             cy="643.72247"
             rx="23.043592"
             ry="32.773109" />
          <ellipse
             transform="matrix(0.4056209,0,0,0.4414522,177.8298,500.88382)"
             id="path3264"
             style="opacity:1;fill:none;fill-opacity:1;stroke:#000000;stroke-width:4;stroke-miterlimit:4;stroke-dasharray:none;stroke-opacity:1"
             cx="194.07826"
             cy="643.72247"
             rx="23.043592"
             ry="32.773109" />
          <path
             sodipodi:nodetypes="cccc"
             id="path3266"
             d="m 258.08823,788.12898 24.48334,-25.32743 4.00364,4.95341 -28.48698,20.37402 z"
             style="fill:#000000;fill-opacity:1;stroke:#000000;stroke-width:4;stroke-miterlimit:4;stroke-opacity:1"
             inkscape:connector-curvature="0" />
          <path
             sodipodi:nodetypes="cccc"
             id="path3268"
             d="m 337.19372,766.00835 -52.62934,3.85178 0.005,-5.71886 52.62447,1.86708 z"
             style="fill:#000000;fill-opacity:1;stroke:#000000;stroke-width:4.65024853;stroke-miterlimit:4;stroke-opacity:1"
             inkscape:connector-curvature="0" />
        </g>
        <path
           style="fill:none;fill-rule:evenodd;stroke:#000000;stroke-width:1px;stroke-linecap:butt;stroke-linejoin:miter;stroke-opacity:1"
           d="m 331.92367,741.54349 c 78.14686,-11.16458 153.60396,-8.88036 229.27674,-7.67453"
           id="path3284"
           sodipodi:nodetypes="cc"
           inkscape:connector-curvature="0" />
        <path
           style="fill:none;fill-rule:evenodd;stroke:#000000;stroke-width:1px;stroke-linecap:butt;stroke-linejoin:miter;stroke-opacity:1"
           d="m 343.43547,718.51989 c 81.27177,-7.36391 159.50906,-7.64737 233.11401,2.87795"
           id="path3286"
           sodipodi:nodetypes="cc"
           inkscape:connector-curvature="0" />
        <path
           style="fill:none;fill-rule:evenodd;stroke:#000000;stroke-width:1px;stroke-linecap:butt;stroke-linejoin:miter;stroke-opacity:1"
           d="m 343.43547,695.49628 c 84.63224,6.6078 161.72286,5.67397 238.86992,4.79659"
           id="path3288"
           sodipodi:nodetypes="cc"
           inkscape:connector-curvature="0" />
        <path
           style="fill:none;fill-rule:evenodd;stroke:#000000;stroke-width:1px;stroke-linecap:butt;stroke-linejoin:miter;stroke-opacity:1"
           d="m 385.64541,683.98448 c 84.25557,13.46495 128.45964,5.3637 181.3109,1.91863"
           id="path3290"
           sodipodi:nodetypes="cc"
           inkscape:connector-curvature="0" />
        <path
           style="fill:none;fill-rule:evenodd;stroke:#000000;stroke-width:1px;stroke-linecap:butt;stroke-linejoin:miter;stroke-opacity:1"
           d="m 364.54044,833.63792 229.27675,-5.7559"
           id="path3292"
           inkscape:connector-curvature="0" />
        <path
           style="fill:none;fill-rule:evenodd;stroke:#000000;stroke-width:1px;stroke-linecap:butt;stroke-linejoin:miter;stroke-opacity:1"
           d="m 369.33702,804.85841 c 76.83614,1.82379 155.67816,15.68285 230.23607,3.83727"
           id="path3294"
           sodipodi:nodetypes="cc"
           inkscape:connector-curvature="0" />
        <path
           style="fill:none;fill-rule:evenodd;stroke:#000000;stroke-width:1px;stroke-linecap:butt;stroke-linejoin:miter;stroke-opacity:1"
           d="m 371.25566,787.59071 c 74.03785,3.11176 149.8333,18.52671 221.60221,5.7559"
           id="path3296"
           sodipodi:nodetypes="cc"
           inkscape:connector-curvature="0" />
        <path
           style="fill:none;fill-rule:evenodd;stroke:#000000;stroke-width:1px;stroke-linecap:butt;stroke-linejoin:miter;stroke-opacity:1"
           d="m 366.45907,770.323 c 91.4671,7.93003 166.48638,6.72239 235.03265,1.91863"
           id="path3298"
           sodipodi:nodetypes="cc"
           inkscape:connector-curvature="0" />
      </g>
    </g>
  </g>
</svg>
