<?xml version="1.0" encoding="UTF-8" standalone="no"?>
<!-- Created with Inkscape (http://www.inkscape.org/) -->

<svg
   xmlns:dc="http://purl.org/dc/elements/1.1/"
   xmlns:cc="http://creativecommons.org/ns#"
   xmlns:rdf="http://www.w3.org/1999/02/22-rdf-syntax-ns#"
   xmlns:svg="http://www.w3.org/2000/svg"
   xmlns="http://www.w3.org/2000/svg"
   xmlns:sodipodi="http://sodipodi.sourceforge.net/DTD/sodipodi-0.dtd"
   xmlns:inkscape="http://www.inkscape.org/namespaces/inkscape"
   width="46.284443mm"
   height="5.8505774mm"
   viewBox="0 0 163.99999 20.730392"
   id="svg2"
   version="1.1"
   inkscape:version="0.91 r13725"
   sodipodi:docname="skylb.svg">
  <defs
     id="defs4" />
  <sodipodi:namedview
     id="base"
     pagecolor="#ffffff"
     bordercolor="#666666"
     borderopacity="1.0"
     inkscape:pageopacity="0.0"
     inkscape:pageshadow="2"
     inkscape:zoom="3.959798"
     inkscape:cx="94.267538"
     inkscape:cy="33.719545"
     inkscape:document-units="px"
     inkscape:current-layer="layer1"
     showgrid="false"
     fit-margin-top="0"
     fit-margin-left="0"
     fit-margin-right="0"
     fit-margin-bottom="0"
     inkscape:window-width="2495"
     inkscape:window-height="1416"
     inkscape:window-x="65"
     inkscape:window-y="24"
     inkscape:window-maximized="1" />
  <metadata
     id="metadata7">
    <rdf:RDF>
      <cc:Work
         rdf:about="">
        <dc:format>image/svg+xml</dc:format>
        <dc:type
           rdf:resource="http://purl.org/dc/dcmitype/StillImage" />
        <dc:title></dc:title>
      </cc:Work>
    </rdf:RDF>
  </metadata>
  <g
     inkscape:label="Layer 1"
     inkscape:groupmode="layer"
     id="layer1"
     transform="translate(-243.37411,-396.4428)">
    <g
       style="font-style:normal;font-weight:normal;font-size:40px;line-height:125%;font-family:sans-serif;letter-spacing:0px;word-spacing:0px;fill:#0057ce;fill-opacity:1;stroke:none;stroke-width:1px;stroke-linecap:butt;stroke-linejoin:miter;stroke-opacity:1"
       id="text4136"
       transform="matrix(0.48643262,0,0,0.48643262,124.989,214.24654)">
      <path
         d="m 253.58896,407.056 q -4.96094,0 -7.8125,-2.20703 -2.40235,-1.83594 -2.40235,-4.23828 0,-1.23047 0.74219,-2.03125 0.74219,-0.82032 2.05078,-0.82032 1.75782,0 2.57813,1.79688 1.11328,2.40234 5.03906,2.40234 3.35938,0 6.50391,-1.46484 3.26172,-1.50391 3.26172,-3.30078 0,-2.46094 -2.03125,-3.24219 -1.44532,-0.56641 -5.80079,-0.66406 -3.3789,-0.0781 -6.05468,-1.26953 -3.61328,-1.6211 -3.55469,-4.64844 0.0586,-3.80859 4.0625,-6.97266 4.00391,-3.18359 8.82812,-3.18359 1.91407,0 4.72657,0.87891 3.49609,1.09375 3.49609,2.51953 0,1.01562 -0.70312,1.79687 -0.78125,0.87891 -2.01172,0.87891 -0.91797,0 -2.75391,-0.39063 -1.81641,-0.39062 -2.75391,-0.39062 -2.51953,0.0195 -4.78515,1.21094 -2.34375,1.21093 -2.34375,2.63671 0,0.74219 0.70312,1.23047 0.72266,0.46875 2.14844,0.66407 2.5,0.13671 4.98047,0.27343 4.33594,0.33203 6.85547,2.44141 2.77344,2.34375 2.77344,6.48437 0,5.03907 -5.74219,7.63672 -4.375,1.97266 -10,1.97266 z"
         style="font-style:normal;font-variant:normal;font-weight:bold;font-stretch:normal;font-size:40px;line-height:125%;font-family:'Comic Sans MS';-inkscape-font-specification:'Comic Sans MS, Bold';text-align:start;writing-mode:lr-tb;text-anchor:start"
         id="path4141"
         inkscape:connector-curvature="0" />
      <path
         d="m 288.58896,406.66537 q -1.54297,0 -2.34375,-1.48437 -0.95703,-1.77734 -2.8711,-4.19922 -2.96875,-3.76953 -3.14453,-4.00391 -1.5625,1.15235 -2.57812,1.75782 -0.19531,2.71484 -0.19531,5.19531 0,1.13281 -0.76172,1.875 -0.76172,0.74219 -1.9336,0.74219 -2.7539,0 -2.7539,-3.28125 0,-1.54297 0.21484,-4.60938 0.23438,-3.08594 0.23438,-4.6289 0,-2.83204 0.0781,-6.46485 0.0977,-3.65234 0.0977,-6.44531 0,-0.83984 -0.0977,-1.97266 -0.0781,-1.15234 -0.0781,-1.99218 0,-1.13282 0.76171,-1.85547 0.76172,-0.74219 1.9336,-0.74219 1.17187,0 1.93359,0.74219 0.76172,0.72265 0.76172,1.85547 0,0.85937 0.0977,2.03125 0.0976,1.17187 0.0976,2.03125 0,2.32421 -0.11718,5.50781 -0.11719,3.04687 -0.0977,5.42969 2.65625,-2.05079 8.08594,-7.46094 0.85937,-0.85938 1.95312,-0.85938 1.09375,0 1.9336,0.80078 0.83984,0.80079 0.83984,1.85547 0,0.89844 -0.76172,1.73828 -2.30469,2.57813 -5.48828,5.39063 l 4.0625,5.23437 q 2.94922,3.92579 2.94922,5.23438 0,1.07422 -0.85938,1.81641 -0.85937,0.76171 -1.95312,0.76171 z"
         style="font-style:normal;font-variant:normal;font-weight:bold;font-stretch:normal;font-size:40px;line-height:125%;font-family:'Comic Sans MS';-inkscape-font-specification:'Comic Sans MS, Bold';text-align:start;writing-mode:lr-tb;text-anchor:start"
         id="path4143"
         inkscape:connector-curvature="0" />
      <path
         d="m 313.21786,389.36069 q -2.1289,4.43359 -6.73828,13.92578 -2.5,5.09765 -3.80859,8.45703 -0.41016,1.21094 -1.28906,3.59375 -0.70313,1.83594 -2.5,1.83594 -1.11328,0 -1.95313,-0.72266 -0.83984,-0.72266 -0.83984,-1.81641 0,-1.8164 4.14062,-10.76171 -2.14843,-4.23829 -6.8164,-12.48047 -0.46875,-0.74219 -0.95703,-1.50391 -0.52735,-0.89844 -0.52735,-1.64062 0,-1.05469 0.83985,-1.85547 0.83984,-0.80078 1.93359,-0.80078 1.28906,0 2.01172,0.95703 2.77344,3.6914 6.46484,11.11328 2.08985,-4.62891 2.53906,-5.58594 1.38672,-2.91016 2.71485,-5.11719 0.83984,-1.40625 2.30469,-1.40625 1.09375,0 1.95312,0.74219 0.85938,0.74219 0.85938,1.81641 0,0.5664 -0.33204,1.25 z"
         style="font-style:normal;font-variant:normal;font-weight:bold;font-stretch:normal;font-size:40px;line-height:125%;font-family:'Comic Sans MS';-inkscape-font-specification:'Comic Sans MS, Bold';text-align:start;writing-mode:lr-tb;text-anchor:start"
         id="path4145"
         inkscape:connector-curvature="0" />
      <path
         d="m 334.27255,405.12241 q -2.30469,1.01562 -7.1289,1.8164 -4.41407,0.74219 -7.2461,0.74219 -4.78515,0 -4.78515,-4.19922 0,0.33203 0.39062,-6.19141 0.50781,-8.47656 0.50781,-18.86718 0,-1.11328 0.76172,-1.89453 0.78125,-0.78125 1.95313,-0.78125 1.17187,0 1.95312,0.78125 0.78125,0.78125 0.78125,1.89453 0,10.41015 -0.52734,19.17968 -0.17578,1.5625 -0.3711,4.78516 4.62891,-0.0781 11.875,-2.26562 0.44922,-0.13672 0.85938,-0.13672 1.23047,0 1.99219,0.89843 0.68359,0.80079 0.68359,1.79688 0,1.67969 -1.69922,2.44141 z"
         style="font-style:normal;font-variant:normal;font-weight:bold;font-stretch:normal;font-size:40px;line-height:125%;font-family:'Comic Sans MS';-inkscape-font-specification:'Comic Sans MS, Bold';text-align:start;writing-mode:lr-tb;text-anchor:start"
         id="path4147"
         inkscape:connector-curvature="0" />
      <path
         d="m 353.21786,405.10287 q -4.55078,1.69922 -11.5039,1.69922 -1.17188,0 -2.10938,-0.97656 -0.91797,-0.97656 -0.91797,-2.08984 l 0,-20.70313 q -0.0586,-1.32812 -0.0976,-2.65625 -0.0586,-1.5039 0.0976,-2.53906 0.27344,-1.83594 3.41797,-2.22656 1.48438,-0.42969 4.92188,-0.42969 3.6914,0 7.07031,2.38281 3.96484,2.77344 3.96484,6.9336 0,2.24609 -0.82031,3.78906 -0.64453,1.25 -2.24609,2.67578 1.89453,0.91797 3.35937,2.77344 1.66016,2.07031 1.66016,4.12109 0,2.59766 -2.83203,4.92188 -1.89453,1.54296 -3.96485,2.32421 z m -6.1914,-24.6289 q -2.51953,0 -3.02735,0.0391 l 0.0195,4.14063 -0.0195,4.10156 q 1.77735,0.21484 2.67579,0.13672 5.97656,-0.46875 5.97656,-4.39453 0,-1.38672 -1.75781,-2.67579 -1.81641,-1.34765 -3.86719,-1.34765 z m 2.28515,13.80859 q -1.77734,0 -5.3125,-0.13672 l 0,7.30469 q 3.35938,-0.17578 7.28516,-1.28906 3.4375,-0.97656 3.39844,-2.10938 -0.0586,-1.5039 -2.20703,-2.67578 -1.67969,-0.9375 -3.16407,-1.09375 z"
         style="font-style:normal;font-variant:normal;font-weight:bold;font-stretch:normal;font-size:40px;line-height:125%;font-family:'Comic Sans MS';-inkscape-font-specification:'Comic Sans MS, Bold';text-align:start;writing-mode:lr-tb;text-anchor:start"
         id="path4149"
         inkscape:connector-curvature="0" />
      <path
         d="m 384.03818,406.05991 q -1.15235,-0.0195 -1.9336,-0.78125 -0.78125,-0.78125 -0.78125,-1.875 0,-1.95313 0.17578,-5.85938 0.19532,-3.90625 0.19532,-5.85937 0,-2.16797 -0.0977,-6.50391 -0.0781,-4.33594 -0.0781,-6.50391 0,-1.07422 1.03515,-2.1289 1.03516,-1.07422 2.20703,-1.07422 0.64453,0 3.24219,1.21094 3.02734,1.44531 3.59375,1.62109 5.72266,1.85547 9.76563,5.74219 4.82421,4.6289 4.82421,10.23437 0,3.37891 -1.66015,6.42578 -1.66016,3.10547 -4.55078,4.98047 -3.24219,2.10938 -9.1211,2.10938 -1.42578,0 -3.28125,-0.41016 -2.24609,-0.50781 -3.53515,-1.32812 z m 10.97656,-20.07813 q -1.89453,-1.19141 -8.125,-3.75 l 0,19.33594 q 0.76172,0.48828 1.73828,0.74219 0.99609,0.23437 2.20703,0.23437 4.21875,0 6.05469,-1.17187 1.73828,-1.11329 2.75391,-3.02735 1.03515,-1.91406 1.03515,-3.98437 0,-4.84375 -5.66406,-8.37891 z"
         style="font-style:normal;font-variant:normal;font-weight:bold;font-stretch:normal;font-size:40px;line-height:125%;font-family:'Comic Sans MS';-inkscape-font-specification:'Comic Sans MS, Bold';text-align:start;writing-mode:lr-tb;text-anchor:start"
         id="path4151"
         inkscape:connector-curvature="0" />
      <path
         d="m 426.28427,407.15366 q -0.89844,0 -2.85156,-1.95313 -1.79688,0.85938 -3.16406,1.28906 -1.36719,0.44922 -2.32422,0.44922 -4.70703,0 -7.07032,-2.51953 -2.34375,-2.51953 -2.34375,-7.53906 0,-4.70703 3.47657,-8.04688 3.47656,-3.35937 8.32031,-3.35937 1.85547,0 4.29687,1.05469 2.94922,1.26953 2.94922,2.94921 0,0.70313 -0.44922,1.23047 -0.19531,0.78125 -0.3125,1.97266 -0.0976,1.17187 -0.0976,2.75391 0,3.73046 0.52734,5.37109 0.0586,0.17578 0.89844,2.03125 0.76172,1.67969 0.76172,1.91406 0,1.03516 -0.80078,1.71875 -0.78125,0.6836 -1.81641,0.6836 z m -4.84375,-13.39844 q 0,-0.625 0.0781,-1.42578 0.0977,-0.82032 0.27343,-1.81641 -0.39062,-0.19531 -0.70312,-0.27344 -0.29297,-0.0977 -0.50781,-0.0977 -2.65625,0 -4.64844,2.08984 -1.99219,2.07031 -1.99219,4.80469 0,2.61719 0.9375,3.94531 0.9375,1.30859 2.8125,1.30859 1.21094,0 2.28516,-0.39062 1.09375,-0.41016 2.05078,-1.19141 -0.58594,-4.64843 -0.58594,-6.95312 z"
         style="font-style:normal;font-variant:normal;font-weight:bold;font-stretch:normal;font-size:40px;line-height:125%;font-family:'Comic Sans MS';-inkscape-font-specification:'Comic Sans MS, Bold';text-align:start;writing-mode:lr-tb;text-anchor:start"
         id="path4153"
         inkscape:connector-curvature="0" />
      <path
         d="m 445.44443,391.56772 q -1.9336,0 -2.32422,-1.6211 -0.78125,-0.13671 -1.60156,-0.13671 -4.70704,0 -4.70704,1.28906 0,0.76172 2.83204,2.05078 3.86718,1.77734 5.23437,2.77344 2.83203,2.05078 2.83203,4.6289 0,3.35938 -3.125,5.09766 -2.51953,1.38672 -6.1914,1.38672 -2.59766,0 -4.7461,-0.80078 -2.92969,-1.09375 -2.92969,-3.22266 0,-1.95312 2.32422,-1.95312 0.89844,0 2.59766,0.5664 1.69922,0.56641 2.61719,0.56641 3.96484,0 3.98437,-1.60156 0,-0.9961 -2.7539,-2.20704 -4.02344,-1.77734 -5.15625,-2.55859 -2.75391,-1.93359 -2.75391,-4.70703 0,-3.92578 4.16016,-5.29297 2.4414,-0.80078 7.42187,-0.80078 1.95313,0 2.89063,0.50781 1.28906,0.6836 1.28906,2.51953 0,3.51563 -1.89453,3.51563 z"
         style="font-style:normal;font-variant:normal;font-weight:bold;font-stretch:normal;font-size:40px;line-height:125%;font-family:'Comic Sans MS';-inkscape-font-specification:'Comic Sans MS, Bold';text-align:start;writing-mode:lr-tb;text-anchor:start"
         id="path4155"
         inkscape:connector-curvature="0" />
      <path
         d="m 456.94833,387.9935 q 1.42578,-1.40625 3.04688,-2.08984 1.64062,-0.70313 3.49609,-0.70313 3.33985,0 4.80469,1.875 1.09375,1.40625 1.32812,4.31641 0.0977,2.40234 0.21485,4.82422 0.3125,3.14453 0.39062,3.82812 0.27344,2.16797 0.66407,3.78906 0.0977,0.41016 0.0977,0.72266 0,1.09375 -0.83984,1.79687 -0.82031,0.72266 -1.9336,0.72266 -1.97265,0 -2.55859,-1.95312 -0.46875,-1.58204 -0.85937,-4.45313 -0.35157,-2.75391 -0.35157,-4.53125 0,-0.48828 0.0391,-1.46484 0.0586,-0.9961 0.0586,-1.48438 0,-1.44531 -0.0391,-1.67969 -0.17578,-1.07421 -1.01563,-1.07421 -2.16797,0 -3.92578,1.99218 -0.89844,0.9961 -2.46094,3.78907 0,7.07031 -0.68359,8.51562 -0.76172,1.60156 -2.42188,1.60156 -1.09375,0 -1.95312,-0.72265 -0.83984,-0.74219 -0.83984,-1.81641 0,-0.37109 0.21484,-1.03516 0.13672,-0.42968 0.23437,-5.27343 -0.0976,-3.92578 0.0391,-13.06641 l 0.0391,-0.64453 q 0.11719,-2.30469 0.11719,-3.08594 0,-0.60547 -0.19532,-1.77734 -0.17578,-1.19141 -0.17578,-1.79688 0,-1.11328 0.80078,-1.8164 0.80079,-0.72266 1.9336,-0.72266 1.93359,0 2.59765,2.07031 0.3711,1.17188 0.3711,3.59375 0,1.95313 -0.11719,3.96485 -0.11719,1.91406 -0.11719,3.78906 z"
         style="font-style:normal;font-variant:normal;font-weight:bold;font-stretch:normal;font-size:40px;line-height:125%;font-family:'Comic Sans MS';-inkscape-font-specification:'Comic Sans MS, Bold';text-align:start;writing-mode:lr-tb;text-anchor:start"
         id="path4157"
         inkscape:connector-curvature="0" />
      <path
         d="m 483.5499,406.68491 q -2.73438,0 -5.19532,-0.95704 -0.72265,0.72266 -1.75781,0.72266 -1.05469,0 -1.81641,-0.70312 -0.74218,-0.70313 -0.74218,-1.75782 0,-0.46875 0.0586,-1.42578 0.0586,-0.97656 0.0586,-1.44531 l 0,-22.12891 q 0,-1.40625 0.625,-2.5 0.78125,-1.38672 2.22657,-1.38672 2.08984,0 2.08984,2.26563 0,0.25391 -0.0781,0.82031 -0.0586,0.54688 -0.0586,0.80078 l 0,7.48047 q 1.44531,-0.80078 2.77344,-1.1914 1.32812,-0.41016 2.55859,-0.41016 4.58985,0 7.42188,3.33984 2.63672,3.125 2.63672,7.57813 0,4.53125 -3.06641,7.67578 -3.125,3.22266 -7.73437,3.22266 z m 0.74218,-16.81641 q -1.01562,0 -2.34375,0.58594 -1.32812,0.58593 -2.98828,1.75781 -0.0195,1.85547 0,8.30078 2.67578,1.15234 4.58985,1.15234 2.48046,0 4.08203,-1.66015 1.60156,-1.67969 1.60156,-4.21875 0,-2.53906 -1.30859,-4.19922 -1.36719,-1.71875 -3.63282,-1.71875 z"
         style="font-style:normal;font-variant:normal;font-weight:bold;font-stretch:normal;font-size:40px;line-height:125%;font-family:'Comic Sans MS';-inkscape-font-specification:'Comic Sans MS, Bold';text-align:start;writing-mode:lr-tb;text-anchor:start"
         id="path4159"
         inkscape:connector-curvature="0" />
      <path
         d="m 506.06943,407.01694 q -3.61328,0 -6.21094,-2.48047 -2.85156,-2.71485 -2.98828,-7.2461 -0.13672,-4.3164 2.36328,-7.69531 2.96875,-3.98437 8.26172,-3.98437 3.90625,0 6.21094,3.125 2.07031,2.8125 2.07031,6.97265 0,4.53125 -2.42188,7.73438 -2.71484,3.57422 -7.28515,3.57422 z m 1.17187,-16.25 q -2.40234,-0.0195 -3.78906,2.1875 -1.17188,1.85547 -1.17188,4.33593 0,2.34375 1.32813,3.59375 1.05469,0.9961 2.46094,0.9961 1.69922,0 2.94922,-1.15235 1.42578,-1.34765 1.52343,-3.65234 0.25391,-6.28906 -3.30078,-6.30859 z"
         style="font-style:normal;font-variant:normal;font-weight:bold;font-stretch:normal;font-size:40px;line-height:125%;font-family:'Comic Sans MS';-inkscape-font-specification:'Comic Sans MS, Bold';text-align:start;writing-mode:lr-tb;text-anchor:start"
         id="path4161"
         inkscape:connector-curvature="0" />
      <path
         d="m 535.89365,407.15366 q -0.89844,0 -2.85157,-1.95313 -1.79687,0.85938 -3.16406,1.28906 -1.36719,0.44922 -2.32422,0.44922 -4.70703,0 -7.07031,-2.51953 -2.34375,-2.51953 -2.34375,-7.53906 0,-4.70703 3.47656,-8.04688 3.47656,-3.35937 8.32031,-3.35937 1.85547,0 4.29688,1.05469 2.94922,1.26953 2.94922,2.94921 0,0.70313 -0.44922,1.23047 -0.19531,0.78125 -0.3125,1.97266 -0.0977,1.17187 -0.0977,2.75391 0,3.73046 0.52735,5.37109 0.0586,0.17578 0.89843,2.03125 0.76172,1.67969 0.76172,1.91406 0,1.03516 -0.80078,1.71875 -0.78125,0.6836 -1.8164,0.6836 z m -4.84375,-13.39844 q 0,-0.625 0.0781,-1.42578 0.0977,-0.82032 0.27344,-1.81641 -0.39063,-0.19531 -0.70313,-0.27344 -0.29297,-0.0977 -0.50781,-0.0977 -2.65625,0 -4.64844,2.08984 -1.99218,2.07031 -1.99218,4.80469 0,2.61719 0.9375,3.94531 0.9375,1.30859 2.8125,1.30859 1.21093,0 2.28515,-0.39062 1.09375,-0.41016 2.05078,-1.19141 -0.58593,-4.64843 -0.58593,-6.95312 z"
         style="font-style:normal;font-variant:normal;font-weight:bold;font-stretch:normal;font-size:40px;line-height:125%;font-family:'Comic Sans MS';-inkscape-font-specification:'Comic Sans MS, Bold';text-align:start;writing-mode:lr-tb;text-anchor:start"
         id="path4163"
         inkscape:connector-curvature="0" />
      <path
         d="m 557.67099,391.78256 q -0.17578,2.98828 -2.71484,2.98828 -2.46094,0 -2.46094,-2.53906 l -0.0977,-1.97266 q -4.39453,0.70313 -6.28906,4.51172 l 0.0195,9.82422 q 0,1.11328 -0.76172,1.83594 -0.76172,0.74219 -1.93359,0.74219 -1.21094,0 -1.875,-0.78125 -0.625,-0.70313 -0.625,-1.79688 l 0,-12.79297 q 0,-0.60547 0.0391,-1.79687 0.0391,-1.21094 0.0391,-1.81641 0,-1.09375 0.64453,-1.8164 0.66407,-0.74219 1.875,-0.74219 2.16797,0 2.57813,2.22656 3.45703,-2.57812 7.67578,-2.57812 3.90625,0 3.90625,5.19531 0,0.99609 -0.0195,1.30859 z"
         style="font-style:normal;font-variant:normal;font-weight:bold;font-stretch:normal;font-size:40px;line-height:125%;font-family:'Comic Sans MS';-inkscape-font-specification:'Comic Sans MS, Bold';text-align:start;writing-mode:lr-tb;text-anchor:start"
         id="path4165"
         inkscape:connector-curvature="0" />
      <path
         d="m 574.81943,386.23569 q 0.2539,-6.66016 0.60547,-9.19922 0.33203,-2.30469 2.53906,-2.30469 1.15234,0 1.85547,0.74219 0.70312,0.74219 0.70312,1.8164 0,2.83204 -0.44922,8.4375 -0.42968,5.60547 -0.42968,8.4375 0,6.91407 0.44921,9.25782 0.0586,0.3125 0.0586,0.5664 0,1.07422 -0.78125,1.77735 -0.78125,0.68359 -1.81641,0.68359 -1.44531,0 -2.14844,-1.28906 -1.32812,0.80078 -2.7539,1.1914 -1.42578,0.41016 -2.94922,0.41016 -4.375,0 -7.26563,-2.79297 -2.94921,-2.85156 -2.94921,-7.26562 0,-5.25391 2.96875,-8.47657 2.96875,-3.24218 7.7539,-3.24218 1.46485,0 2.61719,0.3125 1.15234,0.3125 1.99219,0.9375 z m -0.39063,6.15234 q -0.64453,-1.23047 -1.67969,-1.83594 -1.03515,-0.60547 -2.46093,-0.60547 -2.89063,0 -4.33594,1.67969 -1.44531,1.66016 -1.44531,5 0,2.10938 1.5625,3.61328 1.5625,1.50391 3.63281,1.50391 1.50391,0 2.28516,-0.35156 0.52734,-0.23438 1.79687,-1.25 0.33203,-0.27344 0.64453,-0.60547 -0.0391,-0.9375 0,-7.14844 z"
         style="font-style:normal;font-variant:normal;font-weight:bold;font-stretch:normal;font-size:40px;line-height:125%;font-family:'Comic Sans MS';-inkscape-font-specification:'Comic Sans MS, Bold';text-align:start;writing-mode:lr-tb;text-anchor:start"
         id="path4167"
         inkscape:connector-curvature="0" />
    </g>
  </g>
</svg>
